<?xml version="1.0" encoding="UTF-8" standalone="no"?>
<!-- Generator: Fusion 360, Shaper Origin Export Add-In, Version 1.6.10  -->

<svg
   shaper:fusionaddin="version:1.6.10"
   width="0.5350642cm"
   height="0.9060398cm"
   version="1.1"
   x="0cm"
   y="0cm"
   viewBox="0 0 0.5350642 0.9060398"
   enable-background="new 0 0 0.5350642 0.9060398"
   xml:space="preserve"
   id="svg8"
   sodipodi:docname="LGO3.svg"
   inkscape:version="1.1.1 (3bf5ae0d25, 2021-09-20)"
   inkscape:export-filename="C:\Users\Elias\Pictures\LGO3.png"
   inkscape:export-xdpi="2848.26"
   inkscape:export-ydpi="2848.26"
   xmlns:inkscape="http://www.inkscape.org/namespaces/inkscape"
   xmlns:sodipodi="http://sodipodi.sourceforge.net/DTD/sodipodi-0.dtd"
   xmlns="http://www.w3.org/2000/svg"
   xmlns:svg="http://www.w3.org/2000/svg"
   xmlns:shaper="http://www.shapertools.com/namespaces/shaper"><defs
     id="defs12" /><sodipodi:namedview
     id="namedview10"
     pagecolor="#ffffff"
     bordercolor="#666666"
     borderopacity="1.0"
     inkscape:pageshadow="2"
     inkscape:pageopacity="0.0"
     inkscape:pagecheckerboard="0"
     inkscape:document-units="cm"
     showgrid="false"
     inkscape:zoom="65.593956"
     inkscape:cx="0.48022717"
     inkscape:cy="12.097151"
     inkscape:window-width="3440"
     inkscape:window-height="1417"
     inkscape:window-x="-8"
     inkscape:window-y="-8"
     inkscape:window-maximized="1"
     inkscape:current-layer="svg8"
     units="mm" /><g
     id="g835"
     transform="translate(0.1231071,0.10737965)"
     style="display:inline;paint-order:markers fill stroke"
     inkscape:label="Trainée"><path
       d="M 2.7732232e-4,0.63486081 C 0.01347222,0.61536941 0.03364232,0.60168321 0.05662972,0.59662361 c 0.0135915,-0.0177418 0.0340382,-0.0289252 0.0563091,-0.0307985 0.004548,-0.0109854 0.007396,-0.0225992 0.008447,-0.0344421 0.008213,-0.0643737 0.0118845,-0.12924555 0.0109884,-0.1941348 m 0.0280232,0 c -2.4857e-4,0.0179988 -1.4568e-4,0.0359963 3.0808e-4,0.0539822 5.1761e-4,0.0205167 0.001492,0.0410183 0.002922,0.0614896 0.001836,0.0262818 0.004423,0.0525135 0.007759,0.078663 0.001051,0.0118429 0.003899,0.0234567 0.008447,0.0344421 0.0222709,0.001873 0.0427176,0.0130567 0.0563091,0.0307985 0.0229874,0.00506 0.0431575,0.0187458 0.0563524,0.0382372"
       stroke="#646464"
       stroke-width="0.0010cm"
       stroke-linecap="round"
       stroke-linejoin="round"
       fill="none"
       id="path4-0"
       style="display:inline;stroke:#403a60;stroke-width:0.004;stroke-miterlimit:4;stroke-dasharray:none;stroke-opacity:1;paint-order:markers fill stroke"
       sodipodi:nodetypes="ccccccsscccc" /></g><path
     d="m -0.1351426,0.679993 a 0.135,0.135 0 1 1 0.27,0 0.135,0.135 0 1 1 -0.27,0 z"
     stroke="rgb(100,100,100)"
     stroke-width="0.0010cm"
     stroke-linecap="round"
     stroke-linejoin="round"
     fill="none"
     id="path2"
     style="display:inline;stroke:#e5e1e6;stroke-width:0.005;stroke-miterlimit:4;stroke-dasharray:none;stroke-opacity:1"
     inkscape:label="Cercle"
     transform="matrix(1,0,0,-1,0.2675321,0.9387952)" /><path
     style="fill:#e5e1e6;fill-opacity:1;stroke:none;stroke-width:0;stroke-linecap:butt;stroke-miterlimit:4;stroke-dasharray:none;stroke-opacity:1;paint-order:markers stroke fill"
     d="m 10.593414,12.750366 c -0.115107,0.0375 -0.08654,0.191447 -0.0993,0.285603 -0.01007,0.57739 -0.02785,1.155917 0.0049,1.73286 0.04749,0.04203 0.13522,-0.0036 0.198761,4.58e-4 0.82847,-0.09752 1.626679,-0.411472 2.311554,-0.885773 0.0056,-0.07615 -0.14721,-0.07989 -0.200821,-0.127161 -0.719909,-0.329462 -1.431358,-0.678221 -2.157669,-0.99323 -0.01851,-0.0061 -0.03754,-0.01378 -0.0574,-0.01276 z"
     id="path36026"
     transform="scale(0.02645833)" /><path
     style="fill:#e5e1e6;fill-opacity:1;stroke:none;stroke-width:0;stroke-linecap:butt;stroke-miterlimit:4;stroke-dasharray:none;stroke-opacity:1;paint-order:markers stroke fill"
     d="m 9.6880187,12.762238 c -0.8157556,0.362722 -1.6226405,0.745559 -2.4321898,1.122039 -0.021773,0.06692 0.1111342,0.08836 0.1536865,0.134186 0.7125202,0.443375 1.5336694,0.732774 2.375183,0.770233 0.091694,-0.01337 0.039538,-0.138123 0.056475,-0.197766 0.00868,-0.565503 0.0052,-1.131097 0.00694,-1.696643 -0.041113,-0.04369 -0.098606,-0.116312 -0.1600947,-0.132049 z"
     id="path35987"
     transform="scale(0.02645833)" /><path
     style="fill:#e5e1e6;fill-opacity:1;stroke:none;stroke-width:0;stroke-linecap:butt;stroke-miterlimit:4;stroke-dasharray:none;stroke-opacity:1;paint-order:markers stroke fill"
     d="M 10.054749,4.7603149 C 9.1997772,4.7681663 8.3486472,4.9989387 7.6082764,5.4271545 7.0352933,5.7434468 6.5528467,6.2017624 6.1372681,6.7024231 5.5699158,7.4450047 5.1983998,8.3443761 5.1098022,9.2765503 c -0.014365,0.4204578 -0.029257,0.8449467 0.028646,1.2628757 0.1568842,0.980865 0.5985656,1.920501 1.2796726,2.646212 0.067049,0.07272 0.1319739,-0.04862 0.1855111,-0.07735 C 7.6000041,12.263142 8.6004567,11.420713 9.590973,10.569946 9.7399717,10.150789 9.7165292,9.7002861 9.7650756,9.2649231 9.8263469,8.5785706 9.9595589,7.8954183 10.164398,7.2389526 c 0.125684,0.3635918 0.199842,0.7438783 0.275718,1.1199538 0.109607,0.5471394 0.145557,1.1028827 0.186617,1.6578886 0.02528,0.184333 0.02754,0.391086 0.139167,0.548146 0.330675,0.322614 0.697123,0.606785 1.043618,0.912168 0.660241,0.558798 1.311794,1.128729 1.98342,1.673556 0.07427,-0.0099 0.111777,-0.103723 0.165528,-0.150207 0.675967,-0.799112 1.083037,-1.818184 1.15518,-2.861285 0.01794,-0.4620413 0.01286,-0.9288129 -0.09256,-1.3814825 C 14.724243,7.2740775 13.707959,5.9590402 12.35152,5.2906821 11.642142,4.9354226 10.848129,4.7517095 10.054749,4.7603149 Z"
     id="path35948"
     transform="scale(0.02645833)" /><path
     style="fill:#085799;fill-opacity:1;stroke:none;stroke-width:0;stroke-linecap:butt;stroke-miterlimit:4;stroke-dasharray:none;stroke-opacity:1;paint-order:markers stroke fill"
     d="M 10.069582,0.08161248 C 8.3822895,0.0840866 6.6437027,0.56906895 5.1861691,1.4191768 c -0.038236,0.046476 0.1033297,0.01399 0.1311787,0.01103 3.2389211,0.07744 6.5485092,0.107534 9.7566092,0.06617 0.05529,-0.0476 -0.173446,-0.13485 -0.203051,-0.1653888 C 14.073188,0.88317162 13.214201,0.54403772 12.322764,0.33694125 11.585205,0.16379487 10.827228,0.07731796 10.069582,0.08161248 Z"
     id="path32565"
     sodipodi:nodetypes="ccccccc"
     transform="scale(0.02645833)" /><path
     style="fill:#085799;fill-opacity:1;stroke:none;stroke-width:0.00208791;stroke-linecap:butt;stroke-miterlimit:4;stroke-dasharray:0, 0.022967;stroke-dashoffset:0;stroke-opacity:1;paint-order:markers stroke fill"
     d="M 5.1861691,1.4191768 C 4.3196815,1.9346661 3.5269971,2.577129 2.8590688,3.3334145 1.8951234,4.4196071 1.169328,5.7216735 0.77864107,7.1216923 0.59811179,7.8635974 0.46477037,8.6165189 0.35354979,9.3716907 0.31614486,9.6652745 0.26713794,9.9581858 0.24516114,10.253286 c 0.0406795,0.04531 0.12734625,0.0077 0.18573205,0.01998 1.49910611,0.184455 3.00831041,0.147689 4.50741651,0.128131 0.042763,-0.02999 8.746e-4,-0.09879 0.00742,-0.146544 C 4.9348493,9.836746 4.9258572,9.2859833 5.0075446,8.8734962 5.1765542,7.9142503 5.6226404,7.0047354 6.2838458,6.2892078 6.5464151,6.0063519 6.8304882,5.7458183 7.1504477,5.5298731 7.9467325,4.9708579 8.905774,4.6476107 9.877031,4.6085805 c 0.399402,-0.00661 0.801434,0.00139 1.193869,0.085087 1.096025,0.2042912 2.117725,0.7767198 2.865866,1.6034845 0.86834,0.9474116 1.364383,2.2289124 1.344376,3.5154645 0.0033,0.1502095 -0.0069,0.3007435 -0.01196,0.4492515 0.06153,0.02638 0.145156,0.335256 0.215009,0.342736 l 4.479948,-0.331745 c 0.04335,-0.02732 -0.004,-0.09525 0.0036,-0.138673 C 19.859962,9.216 19.713274,8.3014416 19.50862,7.3996787 19.302388,6.5825054 18.98904,5.7917278 18.578696,5.0554532 18.19691,4.3763331 17.737809,3.7387389 17.203985,3.1708457 16.844203,2.7942651 16.467972,2.4317843 16.051921,2.1172466 15.72232,1.8628447 15.378501,1.6242755 15.018294,1.4163067 H 5.1964839 Z"
     id="path32526"
     sodipodi:nodetypes="cccccccccccccccccccccccccc"
     transform="scale(0.02645833)" /><path
     style="fill:#085799;fill-opacity:1;stroke:none;stroke-width:0.00208791;stroke-linecap:butt;stroke-miterlimit:4;stroke-dasharray:0,0.02296701;stroke-opacity:1;paint-order:markers stroke fill;stroke-dashoffset:0"
     d="m 15.268871,10.262198 c -0.04166,0.314398 -0.09077,0.630694 -0.181531,0.936054 -0.213414,0.752697 -0.602939,1.455709 -1.123297,2.041895 -0.03154,0.02355 -0.03584,0.06419 0.0046,0.08108 0.339936,0.297101 0.690443,0.582987 1.016685,0.895315 0.154912,0.159651 0.247948,0.371204 0.324788,0.577567 0.01226,0.04178 0.03067,0.09038 0.02712,0.130554 -0.712064,-0.31583 -1.414313,-0.655949 -2.124061,-0.977904 -0.07228,0.01768 -0.129504,0.08167 -0.195401,0.116968 -0.731463,0.501559 -1.594364,0.803131 -2.476642,0.880486 -0.07136,-0.0033 -0.04236,0.08331 -0.04711,0.126713 0.0093,0.217291 -0.0018,0.4596 0.143351,0.63909 0.1678,0.203579 0.362901,0.383538 0.544565,0.574735 0.301916,0.30893 0.612382,0.610549 0.903117,0.929636 0.05387,0.08728 0.09706,0.182928 0.11519,0.283809 -0.468186,-0.209287 -0.932394,-0.427744 -1.401072,-0.636025 -0.06,0.019 -0.01227,0.121174 -0.02681,0.173213 0.0068,1.006917 0.0047,2.014416 0.06105,3.020153 0.03251,0.645735 0.07401,1.291056 0.128876,1.935295 0.03218,0.04298 0.105235,0.009 0.153211,0.02058 2.44229,0.476793 4.922577,0.294446 7.439155,0.242506 0.04714,-0.04162 0.134626,-0.365919 0.163006,-0.423318 0.982897,-2.895627 1.468805,-5.959992 1.420364,-9.017868 -0.0092,-0.832913 -0.06187,-1.665254 -0.14929,-2.493477 0.01368,-0.08918 -0.08219,-0.06089 -0.137007,-0.06411 h -4.567623 l -0.01002,0.0046 z"
     id="path32487"
     sodipodi:nodetypes="cccccccccccccccccccccccccccc"
     transform="scale(0.02645833)" /><path
     style="fill:#085799;fill-opacity:1;stroke:#eed484;stroke-width:0.00208791;stroke-linecap:butt;stroke-miterlimit:4;stroke-dasharray:0,0.02296701;stroke-opacity:1;paint-order:markers stroke fill;stroke-dashoffset:0"
     d="m 0.24211847,10.262198 c -0.064382,0.537138 -0.10168858,1.079482 -0.13013893,1.620442 -0.0831791,1.750749 -5.2863e-4,3.509784 0.25667641,5.243757 0.53516113,3.629265 1.82366355,7.14531 3.76237985,10.259819 0.1408869,0.220925 0.2741295,0.447951 0.4273084,0.66036 0.04937,0.0351 0.060241,-0.05179 0.087935,-0.07456 0.479294,-0.692532 1.2178246,-1.19307 2.0313322,-1.399518 0.069079,-0.003 0.1116333,-0.05021 0.1486047,-0.103 0.4900377,-0.590229 1.2115989,-0.980188 1.9725138,-1.075056 0.037072,-0.0041 0.083683,-0.003 0.092521,-0.04969 0.1717386,-0.411575 0.2548981,-0.853461 0.3004902,-1.295333 0.1948269,-1.570024 0.3229054,-3.148276 0.3771777,-4.729479 0.02757,-0.790829 0.029551,-1.582424 0.026936,-2.373656 6.198e-4,-0.03331 0.00882,-0.117284 -0.048618,-0.08675 -0.4760542,0.207831 -0.9455191,0.432166 -1.4235142,0.633953 0.047123,-0.187269 0.161256,-0.349583 0.3024971,-0.478562 0.3132234,-0.325031 0.6367063,-0.640148 0.9590182,-0.956303 0.129125,-0.145904 0.2807386,-0.278239 0.3746186,-0.451221 0.090965,-0.192935 0.066065,-0.414101 0.08208,-0.620872 -0.00601,-0.06191 -0.099027,-0.0258 -0.1425799,-0.04106 -0.8685013,-0.06988 -1.7193709,-0.360667 -2.4474455,-0.842344 -0.069127,-0.03833 -0.129084,-0.102024 -0.2034578,-0.124825 -0.6718916,0.310222 -1.3385489,0.635554 -2.016726,0.929912 -0.021708,0.01093 -0.050379,0.02227 -0.037461,-0.01202 0.062457,-0.259563 0.1840611,-0.507718 0.3756291,-0.696542 0.2964891,-0.300801 0.6286384,-0.565153 0.9472552,-0.842495 0.032596,-0.03984 -0.037025,-0.07459 -0.0561,-0.105686 -0.3933614,-0.430951 -0.7007518,-0.933306 -0.9318763,-1.46673 -0.2082356,-0.480102 -0.318861,-0.994978 -0.3830521,-1.512248 -0.045014,-0.04035 -0.1266627,-0.006 -0.1855595,-0.01735 -1.5010697,0 -3.0021395,0 -4.50320932,0 l -0.0100254,0.0046 z"
     id="path32448"
     transform="scale(0.02645833)" /><path
     style="fill:#085799;fill-opacity:1;stroke:none;stroke-width:0.000738189;stroke-linecap:butt;stroke-miterlimit:4;stroke-dasharray:none;stroke-opacity:1;paint-order:markers stroke fill"
     d="m 10.968613,22.007904 c -0.01594,0.02419 9.72e-4,0.05551 -9.13e-4,0.08277 0.05937,0.680931 0.133844,1.360754 0.218422,2.038808 0.02576,0.263134 0.06998,0.525014 0.141442,0.779863 0.04483,0.159046 0.09557,0.316932 0.159046,0.469523 0.01954,0.01875 0.05121,0.01254 0.07588,0.01926 0.570012,0.06753 1.119896,0.300295 1.564873,0.664263 0.177709,0.144227 0.336848,0.308506 0.478928,0.487963 0.03792,0.0191 0.08245,0.02224 0.122913,0.03529 0.603198,0.158506 1.163405,0.478805 1.60241,0.922628 0.134466,0.13419 0.258218,0.278274 0.368831,0.432506 0.0105,0.01795 0.03753,0.01679 0.04493,-0.0033 1.030441,-1.572982 1.896586,-3.253647 2.576743,-5.006857 0.115059,-0.297902 0.227179,-0.59708 0.330193,-0.899362 0.0015,-0.03262 -0.03751,-0.02378 -0.05853,-0.02489 -1.67371,-0.0039 -3.347428,-0.0025 -5.021142,-0.0029 -0.86381,0 -1.72762,0 -2.59143,0 -0.0042,0.0015 -0.0084,0.003 -0.0126,0.0045 z"
     id="path32409"
     transform="scale(0.02645833)" /><path
     style="fill:#403a60;fill-opacity:1;stroke:#eed484;stroke-width:0.00417583;stroke-linecap:butt;stroke-miterlimit:4;stroke-dasharray:none;stroke-opacity:1;paint-order:markers stroke fill"
     d="M 9.8096007,33.871618 C 8.5438718,32.821334 7.4017076,31.681384 6.3388753,30.40762 5.9646971,29.959182 5.9349359,30.030961 5.9804919,30.008092 c 0.037742,-0.01895 0.068346,-0.162096 0.099702,-0.309607 0.1691759,-0.795859 0.9782461,-1.334442 1.7421749,-1.159734 0.2741755,0.0627 0.3029426,0.06433 0.325755,0.0184 0.011162,-0.02247 0.022235,-0.100395 0.024606,-0.17316 0.011024,-0.338286 0.1875583,-0.633399 0.4908914,-0.820627 0.1809677,-0.1117 0.5342705,-0.538202 0.8000447,-0.965804 0.2735392,-0.440094 0.5482103,-1.113204 0.6671303,-1.634869 0.02821,-0.123751 0.05647,-0.210087 0.0628,-0.191857 0.0063,0.01823 0.03369,0.127611 0.06081,0.243068 0.11197,0.476705 0.320964,1.004492 0.568754,1.436311 0.280769,0.489293 0.671788,0.980481 0.885575,1.112438 0.143178,0.08837 0.314424,0.264743 0.377712,0.38901 0.06734,0.132214 0.111143,0.311731 0.111143,0.455449 0,0.190422 0.02266,0.205847 0.227959,0.155208 0.08731,-0.02153 0.243261,-0.04414 0.346565,-0.05023 0.339204,-0.01999 0.671404,0.09179 0.94034,0.290553 0.299082,0.221043 0.519929,0.549656 0.585153,0.92423 l 0.02542,0.145983 -0.184178,0.227697 c -1.089777,1.347281 -2.310229,2.586261 -3.670153,3.725872 -0.191304,0.160311 -0.35108,0.291475 -0.35506,0.291475 -0.004,0 -0.1407963,-0.110828 -0.3040389,-0.246284 z"
     id="path18280"
     sodipodi:nodetypes="cssssssssscssssssssscssscc"
     inkscape:label="fumée"
     transform="scale(0.02645833)" /><path
     d="M -0.2492213,0.7502665 A 0.7134828,0.7134828 166.99135 0 1 -4.46e-5,0.0327554 h 8.92e-5 a 0.7134828,0.7134828 -51.31076 0 1 0.2491767,0.7175111"
     stroke="rgb(100,100,100)"
     stroke-width="0.0010cm"
     stroke-linecap="round"
     stroke-linejoin="round"
     fill="none"
     id="path4"
     style="display:inline;stroke:#eed484;stroke-width:0.01;stroke-linecap:butt;stroke-miterlimit:4;stroke-dasharray:none;stroke-opacity:1;paint-order:markers stroke fill"
     inkscape:label="bas_bulle"
     transform="matrix(1,0,0,-1,0.2675321,0.9387952)" /><path
     d="M 0.2556632,0.7192605 A 0.2588022,0.2588022 8.7270797 0 1 -0.2569386,0.7121551"
     stroke="#646464"
     stroke-width="0.0010cm"
     stroke-linecap="round"
     stroke-linejoin="round"
     fill="none"
     id="path6"
     style="display:inline;stroke-width:0.01;stroke-miterlimit:4;stroke-dasharray:none;stroke:#eed484;stroke-opacity:1"
     inkscape:label="Haut_bulle"
     transform="matrix(1,0,0,-1,0.2675321,0.9387952)" /><rect
     style="fill:#646464;fill-opacity:1;stroke:none;stroke-width:5.52426e-05;stroke-linecap:butt;stroke-miterlimit:4;stroke-dasharray:0, 0.000607668;stroke-dashoffset:0;stroke-opacity:1;paint-order:markers stroke fill"
     id="rect67920"
     width="0.0069246409"
     height="0.030385738"
     x="0.25538489"
     y="0.38715976"
     ry="0.0034623204" /><path
     d="m 0.38654379,0.36922201 c 0.006985,0.005929 0.0119753,0.01387 0.0142899,0.0227405 l 0.004964,0.002919 m -0.15319371,0.0511934 -0.0459152,0.0208856 0.001862,-0.007378 c 0.001128,-0.004471 0.003469,-0.008542 0.006766,-0.0117626 l 0.031385,-0.0306689 c 0.002211,-0.002161 0.003856,-0.00479 0.004841,-0.00766 6.9618e-4,-0.00203 0.001061,-0.004178 0.001061,-0.006365 l -0.001394,-0.0613323 c 0,0 6.4985e-4,-3.0322e-4 0,0 l -2.0897e-4,-0.002377 -0.12507609,0.0584954 0.001481,-0.005949 c 0.002315,-0.00887 0.007305,-0.0168111 0.0142899,-0.0227405 l 0.10435893,-0.0885815 c 2.8876e-4,-2.4507e-4 5.0034e-4,-5.687e-4 6.0914e-4,-9.3168e-4 l 0.002567,-0.008564 c 1.3202e-4,-4.4051e-4 2.0142e-4,-8.9743e-4 2.0619e-4,-0.001357 2.8609e-4,-0.0278684 0.004927,-0.0555203 0.0137541,-0.0819524 2.9785e-4,-8.9275e-4 0.001559,-8.9275e-4 0.001857,0 0.008827,0.0264321 0.013468,0.054084 0.0137541,0.0819524"
     stroke="#646464"
     stroke-width="0.0010cm"
     stroke-linecap="round"
     stroke-linejoin="round"
     fill="none"
     id="path2-6"
     style="display:inline;fill:#646464;fill-opacity:1;stroke-width:0;stroke-miterlimit:4;stroke-dasharray:none;stroke-dashoffset:0"
     sodipodi:nodetypes="ccccccccsccccccscsccccc" /><path
     style="display:inline;fill:#ff585d;fill-opacity:1;stroke:#403a60;stroke-width:0.00417583;stroke-miterlimit:4;stroke-dasharray:none;stroke-opacity:1;paint-order:markers stroke fill"
     d="m 8.1191563,17.462826 c 0.032013,-0.134388 0.1341143,-0.302416 0.2633303,-0.433363 0.074767,-0.07577 0.395558,-0.392093 0.7128684,-0.702944 0.6169093,-0.604351 0.667975,-0.670184 0.7154424,-0.922341 0.01341,-0.07124 0.022406,-0.601718 0.022406,-1.321305 v -1.20228 l -0.054238,-0.05424 c -0.029831,-0.02983 -0.06965,-0.05424 -0.088487,-0.05424 -0.028908,0 -0.9666289,0.434869 -4.2435469,1.967949 -0.2552213,0.119404 -0.4673444,0.207758 -0.4713846,0.196343 -0.012372,-0.03496 0.085682,-0.312087 0.1559364,-0.440719 0.1415601,-0.25919 0.2449662,-0.35748 1.462701,-1.390333 0.6674493,-0.566114 1.611679,-1.367383 2.0982885,-1.780599 l 0.8847443,-0.751301 0.057598,-0.187861 c 0.048456,-0.158044 0.061818,-0.263262 0.084186,-0.6629126 0.030931,-0.5526351 0.088488,-1.025875 0.1814034,-1.4915175 0.061971,-0.3105647 0.2294155,-0.9669227 0.2588045,-1.0144746 0.01602,-0.025919 0.06719,0.1471806 0.182317,0.616727 0.154514,0.6301943 0.248377,1.3036062 0.278737,1.9997864 0.01484,0.3403053 0.07107,0.6218993 0.146633,0.7343793 0.01514,0.02254 0.957266,0.829195 2.093609,1.792569 1.294532,1.097484 2.105851,1.800586 2.172584,1.882796 0.118291,0.145723 0.263617,0.428185 0.303846,0.590568 0.01442,0.05819 0.02245,0.109424 0.01785,0.113845 -0.0046,0.0044 -1.057419,-0.48307 -2.339603,-1.083311 -1.282183,-0.600242 -2.355293,-1.097951 -2.384689,-1.106021 -0.0401,-0.01101 -0.06355,-0.0022 -0.09391,0.0353 -0.03811,0.04707 -0.04046,0.119495 -0.0403,1.246292 1.11e-4,0.721908 0.0093,1.252491 0.02315,1.337967 0.04523,0.278785 0.07754,0.319765 0.853327,1.082417 0.599339,0.589193 0.721513,0.71991 0.767438,0.8211 0.06392,0.140834 0.09532,0.254273 0.06524,0.235684 -0.01138,-0.007 -0.372276,-0.172589 -0.801984,-0.367897 L 10.622168,16.793786 H 10.167975 9.7137817 l -0.6418715,0.291037 c -0.3530293,0.16007 -0.7151093,0.324412 -0.8046221,0.365205 l -0.1627508,0.07417 z"
     id="path10783"
     transform="scale(0.02645833)"
     sodipodi:insensitive="true"
     inkscape:label="Jet" /><rect
     style="fill:#000000;fill-opacity:0;stroke:none;stroke-width:0.0000555625;stroke-linecap:butt;stroke-miterlimit:4;stroke-dasharray:0, 0.000611187;stroke-dashoffset:0;stroke-opacity:1;paint-order:markers stroke fill"
     id="rect46133"
     width="0.12730797"
     height="0.039756335"
     x="0.0034737329"
     y="0.25310186"
     ry="0.019878168" /><rect
     style="fill:#000000;fill-opacity:0;stroke:none;stroke-width:0.0000555625;stroke-linecap:butt;stroke-miterlimit:4;stroke-dasharray:0, 0.000611187;stroke-dashoffset:0;stroke-opacity:1;paint-order:markers stroke fill"
     id="rect46133-8"
     width="0.12730797"
     height="0.039756335"
     x="0.4040677"
     y="0.25549299"
     ry="0.019878168" /><path
     style="fill:#e5e1e6;fill-opacity:1;stroke:none;stroke-width:0;stroke-linecap:butt;stroke-miterlimit:4;stroke-dasharray:none;stroke-dashoffset:0;stroke-opacity:1;paint-order:markers stroke fill"
     d="m 9.7299806,16.8125 c 0.023011,2.560948 -0.1211225,5.125524 -0.4701541,7.662903 -0.067061,0.339189 -0.1210984,0.70058 -0.2926025,1.003784 -0.193575,0.08623 -0.4254581,0.06908 -0.6244437,0.152771 -0.5735158,0.173693 -1.090894,0.520064 -1.4704048,0.983093 -0.2679906,0.156192 -0.5921955,0.195029 -0.8617897,0.357039 -0.5131953,0.261379 -0.982646,0.649842 -1.2867699,1.135393 0.4041129,0.597624 0.8209397,1.190107 1.2832642,1.743774 0.089857,-0.03469 0.068318,-0.198964 0.1138916,-0.281921 0.1962929,-0.649096 0.888752,-1.137113 1.5681152,-1.037476 0.1441528,-0.0073 0.310894,0.08125 0.4462281,0.02539 0.063283,-0.281422 0.087698,-0.601718 0.3224487,-0.805054 0.8953653,-0.736524 1.4579325,-1.812564 1.7142333,-2.929687 0.03195,-0.06374 0.05787,0.162526 0.08167,0.20105 0.236512,0.910949 0.680193,1.784891 1.350464,2.452636 0.283331,0.214987 0.575067,0.491416 0.586121,0.873108 -0.03968,0.217495 0.112725,0.239557 0.282202,0.20349 0.349073,-0.04366 0.716407,-0.05511 1.030237,0.130983 0.357955,0.184579 0.643236,0.522367 0.758117,0.906921 -0.01366,0.06673 0.06085,0.141491 0.105225,0.06085 0.426118,-0.516912 0.828114,-1.058943 1.176208,-1.631469 0.01798,-0.13484 -0.156644,-0.221479 -0.223572,-0.323724 -0.429223,-0.488863 -1.015461,-0.807674 -1.6333,-0.990852 -0.322121,-0.12667 -0.491828,-0.464663 -0.786132,-0.639238 -0.422859,-0.323051 -0.942005,-0.48241 -1.457338,-0.571394 -0.124465,-0.05305 -0.117055,-0.236872 -0.175703,-0.344122 -0.22645,-0.73621 -0.251816,-1.516649 -0.349786,-2.278327 -0.189989,-1.781848 -0.266838,-3.573283 -0.271389,-5.364853 -0.01726,-0.235175 0.02106,-0.494003 -0.02929,-0.715091 -0.291857,0.01344 -0.607942,-0.02675 -0.8857414,0.02002 z"
     id="path71326"
     transform="scale(0.02645833)"
     inkscape:export-filename="C:\Users\Elias\Pictures\path71326.png"
     inkscape:export-xdpi="5322.8198"
     inkscape:export-ydpi="5322.8198" /></svg>
